REM DIRINDEX 1\6,1\2\7,1\2\8,1\2\9,1\3\10,1\3\11,1\4\12,1\4\13,1\4\14,1\5\15,1\5\16,1\5\17
REM DIRNAME folder01,folder02,folder03,folder04,folder05,folder06,folder07,folder08,folder09,folder10,folder11,folder12,folder13,folder14,folder15,folder16,folder17
TITLE ""
FILE "P2Q_t_0493-0510.mp3" MP3
  TRACK 01 AUDIO
    TITLE "10:cjc040_2638"
    INDEX 01 00:00:00
  TRACK 02 AUDIO
    TITLE "0:"
    INDEX 01 00:00:68
  TRACK 03 AUDIO
    TITLE "11:cjc040_2639"
    INDEX 01 00:01:48
  TRACK 04 AUDIO
    TITLE "0:"
    INDEX 01 00:03:74
  TRACK 05 AUDIO
    TITLE "10:cjc040_2640"
    INDEX 01 00:04:48
  TRACK 06 AUDIO
    TITLE "0:"
    INDEX 01 00:06:08
  TRACK 07 AUDIO
    TITLE "11:cjc040_2641"
    INDEX 01 00:06:53
  TRACK 08 AUDIO
    TITLE "0:"
    INDEX 01 00:09:14
  TRACK 09 AUDIO
    TITLE "10:cjc040_2642"
    INDEX 01 00:09:59
  TRACK 10 AUDIO
    TITLE "0:"
    INDEX 01 00:11:29
  TRACK 11 AUDIO
    TITLE "11:cjc040_2643"
    INDEX 01 00:12:03
  TRACK 12 AUDIO
    TITLE "0:"
    INDEX 01 00:14:04
  TRACK 13 AUDIO
    TITLE "10:cjc040_2644"
    INDEX 01 00:14:54
  TRACK 14 AUDIO
    TITLE "0:"
    INDEX 01 00:16:08
  TRACK 15 AUDIO
    TITLE "11:cjc040_2645"
    INDEX 01 00:16:57
  TRACK 16 AUDIO
    TITLE "0:"
    INDEX 01 00:19:16
  TRACK 17 AUDIO
    TITLE "10:cjc040_2646"
    INDEX 01 00:19:69
  TRACK 18 AUDIO
    TITLE "0:"
    INDEX 01 00:21:23
  TRACK 19 AUDIO
    TITLE "11:cjc040_2647"
    INDEX 01 00:22:01
  TRACK 20 AUDIO
    TITLE "0:"
    INDEX 01 00:23:18
  TRACK 21 AUDIO
    TITLE "10:cjc040_2648"
    INDEX 01 00:23:71
  TRACK 22 AUDIO
    TITLE "0:"
    INDEX 01 00:25:11
  TRACK 23 AUDIO
    TITLE "11:cjc040_2649"
    INDEX 01 00:25:64
  TRACK 24 AUDIO
    TITLE "0:"
    INDEX 01 00:27:02
  TRACK 25 AUDIO
    TITLE "10:cjc040_2650"
    INDEX 01 00:27:55
  TRACK 26 AUDIO
    TITLE "0:"
    INDEX 01 00:29:03
  TRACK 27 AUDIO
    TITLE "11:cjc040_2651"
    INDEX 01 00:29:52
  TRACK 28 AUDIO
    TITLE "0:"
    INDEX 01 00:30:57
  TRACK 29 AUDIO
    TITLE "10:cjc040_2652"
    INDEX 01 00:31:41
  TRACK 30 AUDIO
    TITLE "0:"
    INDEX 01 00:32:35
  TRACK 31 AUDIO
    TITLE "11:cjc040_2653"
    INDEX 01 00:33:21
  TRACK 32 AUDIO
    TITLE "0:"
    INDEX 01 00:34:28
  TRACK 33 AUDIO
    TITLE "10:cjc040_2654"
    INDEX 01 00:35:06
  TRACK 34 AUDIO
    TITLE "0:"
    INDEX 01 00:36:19
  TRACK 35 AUDIO
    TITLE "11:cjc040_2655"
    INDEX 01 00:36:74
  TRACK 36 AUDIO
    TITLE "0:"
    INDEX 01 00:39:72
  TRACK 37 AUDIO
    TITLE "10:cjc040_2656"
    INDEX 01 00:40:48
  TRACK 38 AUDIO
    TITLE "0:"
    INDEX 01 00:41:53
  TRACK 39 AUDIO
    TITLE "11:cjc040_2657"
    INDEX 01 00:42:31
  TRACK 40 AUDIO
    TITLE "0:"
    INDEX 01 00:45:61
  TRACK 41 AUDIO
    TITLE "10:cjc040_2658"
    INDEX 01 00:46:37
  TRACK 42 AUDIO
    TITLE "0:"
    INDEX 01 00:47:50
  TRACK 43 AUDIO
    TITLE "11:cjc040_2659"
    INDEX 01 00:48:30
  TRACK 44 AUDIO
    TITLE "0:"
    INDEX 01 00:50:39
  TRACK 45 AUDIO
    TITLE "10:cjc040_2660"
    INDEX 01 00:51:16
  TRACK 46 AUDIO
    TITLE "0:"
    INDEX 01 00:52:37
  TRACK 47 AUDIO
    TITLE "11:cjc040_2661"
    INDEX 01 00:53:15
  TRACK 48 AUDIO
    TITLE "0:"
    INDEX 01 00:54:66
  TRACK 49 AUDIO
    TITLE "10:cjc040_2662"
    INDEX 01 00:55:44
  TRACK 50 AUDIO
    TITLE "0:"
    INDEX 01 00:56:65
  TRACK 51 AUDIO
    TITLE "11:cjc040_2663"
    INDEX 01 00:57:45
  TRACK 52 AUDIO
    TITLE "0:"
    INDEX 01 00:58:50
  TRACK 53 AUDIO
    TITLE "10:cjc040_2664"
    INDEX 01 00:59:30
  TRACK 54 AUDIO
    TITLE "0:"
    INDEX 01 01:00:35
  TRACK 55 AUDIO
    TITLE "11:cjc040_2665"
    INDEX 01 01:01:11
  TRACK 56 AUDIO
    TITLE "0:"
    INDEX 01 01:03:18
  TRACK 57 AUDIO
    TITLE "10:cjc040_2666"
    INDEX 01 01:03:73
  TRACK 58 AUDIO
    TITLE "0:"
    INDEX 01 01:05:15
  TRACK 59 AUDIO
    TITLE "11:cjc040_2667"
    INDEX 01 01:05:73
  TRACK 60 AUDIO
    TITLE "0:"
    INDEX 01 01:07:72
  TRACK 61 AUDIO
    TITLE "10:cjc040_2668"
    INDEX 01 01:08:52
  TRACK 62 AUDIO
    TITLE "0:"
    INDEX 01 01:09:71
  TRACK 63 AUDIO
    TITLE "11:cjc040_2669"
    INDEX 01 01:10:49
  TRACK 64 AUDIO
    TITLE "0:"
    INDEX 01 01:12:64
  TRACK 65 AUDIO
    TITLE "10:cjc040_2670"
    INDEX 01 01:13:45
  TRACK 66 AUDIO
    TITLE "0:"
    INDEX 01 01:14:65
  TRACK 67 AUDIO
    TITLE "11:cjc040_2671"
    INDEX 01 01:15:42
  TRACK 68 AUDIO
    TITLE "0:"
    INDEX 01 01:16:60
  TRACK 69 AUDIO
    TITLE "10:cjc040_2672"
    INDEX 01 01:17:39
  TRACK 70 AUDIO
    TITLE "0:"
    INDEX 01 01:18:54
  TRACK 71 AUDIO
    TITLE "11:cjc040_2673"
    INDEX 01 01:19:32
  TRACK 72 AUDIO
    TITLE "0:"
    INDEX 01 01:20:59
